<svg width="1920" height="1280" viewBox="0 0 1920 1280" fill="none" xmlns="http://www.w3.org/2000/svg">
<g clip-path="url(#clip0_12_1)">
<rect width="1920" height="1280" fill="#066194"/>
<rect width="1920" height="1280" fill="#066194"/>
<rect y="831" width="1920" height="449" fill="#FFCD3C"/>
<g filter="url(#filter0_d_12_1)">
<path d="M1 258L699 834.935L527.12 1280H1V258Z" fill="#65C3F9"/>
</g>
<g filter="url(#filter1_d_12_1)">
<path d="M0 288L666 848L502 1280H0V288Z" fill="white"/>
</g>
<g filter="url(#filter2_d_12_1)">
<path d="M311.523 205.609C311.523 212.562 310.195 219.086 307.539 225.18C304.883 231.273 301.25 236.625 296.641 241.234C292.109 245.766 286.797 249.359 280.703 252.016C274.609 254.672 268.086 256 261.133 256H177.109V87.9531H261.133C268.086 87.9531 274.609 89.2812 280.703 91.9375C286.797 94.5938 292.109 98.2266 296.641 102.836C301.25 107.367 304.883 112.68 307.539 118.773C310.195 124.867 311.523 131.391 311.523 138.344C311.523 141.469 311.094 144.672 310.234 147.953C309.375 151.234 308.164 154.398 306.602 157.445C305.039 160.492 303.164 163.266 300.977 165.766C298.789 168.266 296.367 170.336 293.711 171.977C296.445 173.461 298.906 175.492 301.094 178.07C303.281 180.57 305.156 183.344 306.719 186.391C308.281 189.438 309.453 192.641 310.234 196C311.094 199.281 311.523 202.484 311.523 205.609ZM210.742 222.367H261.133C263.477 222.367 265.664 221.938 267.695 221.078C269.727 220.219 271.484 219.047 272.969 217.562C274.531 216 275.742 214.203 276.602 212.172C277.461 210.141 277.891 207.953 277.891 205.609C277.891 203.266 277.461 201.078 276.602 199.047C275.742 197.016 274.531 195.258 272.969 193.773C271.484 192.211 269.727 191 267.695 190.141C265.664 189.281 263.477 188.852 261.133 188.852H210.742V222.367ZM210.742 155.219H261.133C263.477 155.219 265.664 154.789 267.695 153.93C269.727 153.07 271.484 151.898 272.969 150.414C274.531 148.852 275.742 147.055 276.602 145.023C277.461 142.914 277.891 140.688 277.891 138.344C277.891 136 277.461 133.812 276.602 131.781C275.742 129.75 274.531 127.992 272.969 126.508C271.484 124.945 269.727 123.734 267.695 122.875C265.664 122.016 263.477 121.586 261.133 121.586H210.742V155.219ZM363.789 303.812V271.586L381.602 271.82C384.727 271.82 387.734 271.312 390.625 270.297C393.516 269.281 396.172 267.875 398.594 266.078C401.094 264.281 403.281 262.133 405.156 259.633C407.031 257.211 408.555 254.555 409.727 251.664C406.211 253.148 402.617 254.633 398.945 256.117C395.352 257.602 391.719 258.344 388.047 258.344C380.312 258.344 373.047 256.977 366.25 254.242C359.453 251.508 353.477 247.641 348.32 242.641C343.242 237.562 339.219 231.43 336.25 224.242C333.359 216.977 331.914 208.852 331.914 199.867V130.492H363.789V199.867C363.789 204.32 364.414 208.227 365.664 211.586C366.992 214.867 368.75 217.641 370.938 219.906C373.125 222.094 375.664 223.734 378.555 224.828C381.523 225.922 384.688 226.469 388.047 226.469C391.328 226.469 394.414 225.727 397.305 224.242C400.273 222.68 402.852 220.648 405.039 218.148C407.227 215.648 408.945 212.836 410.195 209.711C411.445 206.508 412.07 203.227 412.07 199.867V130.492H444.297V240.18C444.219 249.008 442.5 257.289 439.141 265.023C435.781 272.758 431.172 279.516 425.312 285.297C419.531 291.078 412.773 295.648 405.039 299.008C397.305 302.367 389.023 304.047 380.195 304.047L363.789 303.812ZM531.719 256C523.984 256 516.719 254.555 509.922 251.664C503.125 248.695 497.148 244.672 491.992 239.594C486.914 234.438 482.891 228.461 479.922 221.664C477.031 214.867 475.586 207.602 475.586 199.867V162.602H460V130.727H475.586V80.5703H507.461V130.727H555.977V162.602H507.461V199.867C507.461 203.227 508.086 206.391 509.336 209.359C510.586 212.25 512.305 214.789 514.492 216.977C516.68 219.164 519.258 220.922 522.227 222.25C525.195 223.5 528.359 224.125 531.719 224.125H555.977V256H531.719ZM623.945 225.297C625.195 225.688 626.445 225.961 627.695 226.117C628.945 226.195 630.195 226.234 631.445 226.234C634.57 226.234 637.578 225.805 640.469 224.945C643.359 224.086 646.055 222.875 648.555 221.312C651.133 219.672 653.398 217.719 655.352 215.453C657.383 213.109 659.023 210.531 660.273 207.719L683.711 231.273C680.742 235.492 677.305 239.281 673.398 242.641C669.57 246 665.391 248.852 660.859 251.195C656.406 253.539 651.68 255.297 646.68 256.469C641.758 257.719 636.68 258.344 631.445 258.344C622.617 258.344 614.297 256.703 606.484 253.422C598.75 250.141 591.953 245.57 586.094 239.711C580.312 233.852 575.742 226.898 572.383 218.852C569.023 210.727 567.344 201.82 567.344 192.133C567.344 182.211 569.023 173.148 572.383 164.945C575.742 156.742 580.312 149.75 586.094 143.969C591.953 138.188 598.75 133.695 606.484 130.492C614.297 127.289 622.617 125.688 631.445 125.688C636.68 125.688 641.797 126.312 646.797 127.562C651.797 128.812 656.523 130.609 660.977 132.953C665.508 135.297 669.727 138.188 673.633 141.625C677.539 144.984 680.977 148.773 683.945 152.992L623.945 225.297ZM640.352 159.32C638.867 158.773 637.383 158.422 635.898 158.266C634.492 158.109 633.008 158.031 631.445 158.031C627.07 158.031 622.93 158.852 619.023 160.492C615.195 162.055 611.836 164.32 608.945 167.289C606.133 170.258 603.906 173.852 602.266 178.07C600.625 182.211 599.805 186.898 599.805 192.133C599.805 193.305 599.844 194.633 599.922 196.117C600.078 197.602 600.273 199.125 600.508 200.688C600.82 202.172 601.172 203.617 601.562 205.023C601.953 206.43 602.461 207.68 603.086 208.773L640.352 159.32ZM760.938 138.344C760.938 131.391 762.266 124.867 764.922 118.773C767.578 112.68 771.172 107.367 775.703 102.836C780.312 98.2266 785.664 94.5938 791.758 91.9375C797.852 89.2812 804.375 87.9531 811.328 87.9531H888.438V121.586H811.328C808.984 121.586 806.797 122.016 804.766 122.875C802.734 123.734 800.938 124.945 799.375 126.508C797.891 127.992 796.719 129.75 795.859 131.781C795 133.812 794.57 136 794.57 138.344C794.57 140.688 795 142.914 795.859 145.023C796.719 147.055 797.891 148.852 799.375 150.414C800.938 151.898 802.734 153.07 804.766 153.93C806.797 154.789 808.984 155.219 811.328 155.219H844.961C851.914 155.219 858.438 156.547 864.531 159.203C870.703 161.781 876.055 165.375 880.586 169.984C885.195 174.516 888.789 179.867 891.367 186.039C894.023 192.133 895.352 198.656 895.352 205.609C895.352 212.562 894.023 219.086 891.367 225.18C888.789 231.273 885.195 236.625 880.586 241.234C876.055 245.766 870.703 249.359 864.531 252.016C858.438 254.672 851.914 256 844.961 256H770.312V222.367H844.961C847.305 222.367 849.492 221.938 851.523 221.078C853.555 220.219 855.312 219.047 856.797 217.562C858.359 216 859.57 214.203 860.43 212.172C861.289 210.141 861.719 207.953 861.719 205.609C861.719 203.266 861.289 201.078 860.43 199.047C859.57 197.016 858.359 195.258 856.797 193.773C855.312 192.211 853.555 191 851.523 190.141C849.492 189.281 847.305 188.852 844.961 188.852H811.328C804.375 188.852 797.852 187.523 791.758 184.867C785.664 182.211 780.312 178.617 775.703 174.086C771.172 169.477 767.578 164.125 764.922 158.031C762.266 151.859 760.938 145.297 760.938 138.344ZM951.836 96.3906C951.836 99.3594 951.25 102.133 950.078 104.711C948.984 107.289 947.461 109.555 945.508 111.508C943.555 113.383 941.25 114.906 938.594 116.078C936.016 117.172 933.242 117.719 930.273 117.719C927.305 117.719 924.492 117.172 921.836 116.078C919.258 114.906 916.992 113.383 915.039 111.508C913.164 109.555 911.641 107.289 910.469 104.711C909.375 102.133 908.828 99.3594 908.828 96.3906C908.828 93.5 909.375 90.7656 910.469 88.1875C911.641 85.5312 913.164 83.2656 915.039 81.3906C916.992 79.4375 919.258 77.9141 921.836 76.8203C924.492 75.6484 927.305 75.0625 930.273 75.0625C933.242 75.0625 936.016 75.6484 938.594 76.8203C941.25 77.9141 943.555 79.4375 945.508 81.3906C947.461 83.2656 948.984 85.5312 950.078 88.1875C951.25 90.7656 951.836 93.5 951.836 96.3906ZM946.328 256H914.102V130.492H946.328V256ZM1068.79 256H964.141L1016.99 162.602H964.141V130.727H1068.79L1015.94 224.125H1068.79V256ZM1134.65 225.297C1135.9 225.688 1137.15 225.961 1138.4 226.117C1139.65 226.195 1140.9 226.234 1142.15 226.234C1145.27 226.234 1148.28 225.805 1151.17 224.945C1154.06 224.086 1156.76 222.875 1159.26 221.312C1161.84 219.672 1164.1 217.719 1166.05 215.453C1168.09 213.109 1169.73 210.531 1170.98 207.719L1194.41 231.273C1191.45 235.492 1188.01 239.281 1184.1 242.641C1180.27 246 1176.09 248.852 1171.56 251.195C1167.11 253.539 1162.38 255.297 1157.38 256.469C1152.46 257.719 1147.38 258.344 1142.15 258.344C1133.32 258.344 1125 256.703 1117.19 253.422C1109.45 250.141 1102.66 245.57 1096.8 239.711C1091.02 233.852 1086.45 226.898 1083.09 218.852C1079.73 210.727 1078.05 201.82 1078.05 192.133C1078.05 182.211 1079.73 173.148 1083.09 164.945C1086.45 156.742 1091.02 149.75 1096.8 143.969C1102.66 138.188 1109.45 133.695 1117.19 130.492C1125 127.289 1133.32 125.688 1142.15 125.688C1147.38 125.688 1152.5 126.312 1157.5 127.562C1162.5 128.812 1167.23 130.609 1171.68 132.953C1176.21 135.297 1180.43 138.188 1184.34 141.625C1188.24 144.984 1191.68 148.773 1194.65 152.992L1134.65 225.297ZM1151.05 159.32C1149.57 158.773 1148.09 158.422 1146.6 158.266C1145.2 158.109 1143.71 158.031 1142.15 158.031C1137.77 158.031 1133.63 158.852 1129.73 160.492C1125.9 162.055 1122.54 164.32 1119.65 167.289C1116.84 170.258 1114.61 173.852 1112.97 178.07C1111.33 182.211 1110.51 186.898 1110.51 192.133C1110.51 193.305 1110.55 194.633 1110.62 196.117C1110.78 197.602 1110.98 199.125 1111.21 200.688C1111.52 202.172 1111.88 203.617 1112.27 205.023C1112.66 206.43 1113.16 207.68 1113.79 208.773L1151.05 159.32ZM1331.17 256H1323.44L1311.02 238.773C1307.97 241.508 1304.73 244.086 1301.29 246.508C1297.93 248.852 1294.38 250.922 1290.62 252.719C1286.88 254.438 1283.01 255.805 1279.02 256.82C1275.12 257.836 1271.13 258.344 1267.07 258.344C1258.24 258.344 1249.92 256.703 1242.11 253.422C1234.38 250.062 1227.58 245.453 1221.72 239.594C1215.94 233.656 1211.37 226.664 1208.01 218.617C1204.65 210.492 1202.97 201.664 1202.97 192.133C1202.97 182.68 1204.65 173.891 1208.01 165.766C1211.37 157.641 1215.94 150.609 1221.72 144.672C1227.58 138.734 1234.38 134.086 1242.11 130.727C1249.92 127.367 1258.24 125.688 1267.07 125.688C1269.88 125.688 1272.77 125.922 1275.74 126.391C1278.79 126.859 1281.72 127.641 1284.53 128.734C1287.42 129.75 1290.12 131.117 1292.62 132.836C1295.12 134.555 1297.23 136.664 1298.95 139.164V80.5703H1331.17V256ZM1298.95 192.133C1298.95 187.758 1298.09 183.539 1296.37 179.477C1294.73 175.336 1292.46 171.703 1289.57 168.578C1286.68 165.375 1283.28 162.836 1279.38 160.961C1275.55 159.008 1271.45 158.031 1267.07 158.031C1262.7 158.031 1258.55 158.812 1254.65 160.375C1250.82 161.938 1247.46 164.203 1244.57 167.172C1241.76 170.062 1239.53 173.617 1237.89 177.836C1236.25 182.055 1235.43 186.82 1235.43 192.133C1235.43 196.742 1236.25 201.117 1237.89 205.258C1239.53 209.398 1241.76 213.031 1244.57 216.156C1247.46 219.281 1250.82 221.742 1254.65 223.539C1258.55 225.336 1262.7 226.234 1267.07 226.234C1271.45 226.234 1275.55 225.297 1279.38 223.422C1283.28 221.469 1286.68 218.93 1289.57 215.805C1292.46 212.602 1294.73 208.969 1296.37 204.906C1298.09 200.766 1298.95 196.508 1298.95 192.133Z" fill="white"/>
</g>
<g filter="url(#filter3_d_12_1)">
<path d="M903.334 471.798C902.49 455.762 898.833 442.117 892.362 430.864C885.891 419.611 877.592 410.327 867.464 403.012C857.617 395.416 846.223 389.789 833.282 386.132C820.341 382.193 806.977 379.661 793.192 378.536C779.688 377.411 766.043 377.551 752.258 378.958C738.754 380.365 726.235 382.615 714.7 385.71C715.544 409.061 715.966 433.537 715.966 459.138C716.247 484.739 716.388 510.2 716.388 535.52C716.388 560.84 716.388 585.597 716.388 609.792C716.388 633.705 716.81 655.931 717.654 676.468C722.437 677.031 728.063 677.453 734.534 677.734C741.005 678.015 747.475 678.156 753.946 678.156C760.698 677.875 767.028 677.593 772.936 677.312C779.125 676.749 784.189 675.905 788.128 674.78C788.409 674.78 788.55 674.78 788.55 674.78C788.831 674.499 789.113 674.358 789.394 674.358V673.936C788.831 653.399 788.409 637.081 788.128 624.984C788.128 612.887 788.128 603.321 788.128 596.288C788.128 588.973 788.128 583.487 788.128 579.83C788.128 575.891 787.987 571.953 787.706 568.014C801.21 570.265 814.433 569.702 827.374 566.326C840.315 562.669 852.131 556.901 862.822 549.024C873.513 541.147 882.375 531.581 889.408 520.328C896.723 509.075 901.224 496.696 902.912 483.192C903.193 481.504 903.334 479.816 903.334 478.128C903.334 476.159 903.334 474.189 903.334 472.22V471.798ZM829.484 454.074C833.141 456.325 835.955 459.138 837.924 462.514C840.175 465.89 841.581 469.547 842.144 473.486C842.988 477.425 842.847 481.363 841.722 485.302C840.878 489.241 839.331 492.757 837.08 495.852C833.704 499.228 829.625 501.76 824.842 503.448C820.341 504.855 815.558 505.839 810.494 506.402C805.711 506.965 800.788 507.387 795.724 507.668C790.66 507.668 785.877 507.809 781.376 508.09H780.11C778.703 503.87 777.719 499.228 777.156 494.164C776.875 488.819 776.593 483.333 776.312 477.706C776.312 472.079 776.312 466.453 776.312 460.826C776.593 455.199 776.593 449.854 776.312 444.79C776.593 444.509 777.015 444.368 777.578 444.368C786.581 442.117 795.724 441.836 805.008 443.524C814.292 444.931 822.451 448.447 829.484 454.074ZM972.572 469.266C963.569 468.141 953.441 468 942.188 468.844C930.934 469.407 920.244 469.125 910.116 468C918.837 499.791 927.699 532.707 936.702 566.748C945.704 600.789 953.16 634.831 959.068 668.872C960.474 678.156 959.63 684.908 956.536 689.128C953.722 693.348 949.502 696.021 943.876 697.146C938.249 698.553 931.778 698.975 924.464 698.412C917.43 697.849 910.538 697.568 903.786 697.568C902.379 705.445 901.816 714.589 902.098 724.998C902.098 735.689 903.504 745.254 906.318 753.694C930.231 755.101 950.346 753.272 966.664 748.208C983.262 743.144 997.048 735.689 1008.02 725.842C1019.27 716.277 1028.28 704.883 1035.03 691.66C1041.78 678.437 1047.27 664.511 1051.49 649.882C1055.99 635.253 1059.64 620.342 1062.46 605.15C1065.55 589.958 1068.93 575.469 1072.59 561.684C1075.96 547.055 1079.34 532.144 1082.71 516.952C1086.37 501.479 1090.45 485.302 1094.95 468.422C1083.14 467.578 1072.3 467.437 1062.46 468C1052.61 468.563 1042.9 468.703 1033.34 468.422C1029.96 476.862 1027.15 487.975 1024.9 501.76C1022.65 515.545 1020.54 529.893 1018.57 544.804C1016.88 559.715 1015.05 574.063 1013.08 587.848C1011.11 601.633 1008.58 612.746 1005.49 621.186C1002.39 612.746 999.298 602.055 996.204 589.114C993.109 575.891 990.155 562.106 987.342 547.758C984.528 533.41 981.856 519.343 979.324 505.558C976.792 491.491 974.541 479.394 972.572 469.266ZM1189.15 390.352C1184.37 390.915 1179.58 391.055 1174.8 390.774C1170.02 390.493 1165.24 390.211 1160.45 389.93C1155.67 389.367 1151.03 388.945 1146.53 388.664C1142.31 388.383 1138.37 388.523 1134.71 389.086C1134.15 394.431 1133.73 400.48 1133.45 407.232C1133.45 413.984 1133.45 421.017 1133.45 428.332C1133.45 435.647 1133.59 442.961 1133.87 450.276C1134.15 457.309 1134.29 463.921 1134.29 470.11C1129.79 470.11 1125.01 470.11 1119.94 470.11C1115.16 470.11 1109.95 469.969 1104.33 469.688L1103.06 521.172C1108.97 521.172 1114.32 521.172 1119.1 521.172C1124.16 521.172 1128.94 521.031 1133.45 520.75C1133.16 541.287 1133.31 561.262 1133.87 580.674C1134.43 599.805 1136.54 620.201 1140.2 641.864C1143.86 650.585 1149.76 657.478 1157.92 662.542C1166.36 667.606 1175.93 671.404 1186.62 673.936C1197.31 676.468 1208.7 678.156 1220.8 679C1232.9 679.563 1244.57 679.563 1255.83 679C1257.23 674.78 1258.08 670.138 1258.36 665.074C1258.92 660.01 1259.06 654.946 1258.78 649.882C1258.5 644.818 1258.08 639.895 1257.51 635.112C1256.95 630.329 1256.39 625.969 1255.83 622.03C1251.04 622.311 1245.42 622.311 1238.95 622.03C1232.76 621.749 1226.57 621.045 1220.38 619.92C1214.19 618.513 1208.42 616.685 1203.08 614.434C1197.73 612.183 1193.65 609.089 1190.84 605.15C1190.56 592.49 1190.42 578.986 1190.42 564.638C1190.42 550.009 1190.42 535.098 1190.42 519.906H1255.83C1255.26 516.249 1255.12 511.888 1255.4 506.824C1255.97 501.479 1256.39 496.274 1256.67 491.21C1256.95 486.146 1256.95 481.504 1256.67 477.284C1256.39 472.783 1255.26 469.407 1253.29 467.156C1238.95 468 1226.85 468.703 1217 469.266C1207.44 469.829 1198.29 470.251 1189.57 470.532C1189.57 466.312 1189.43 462.233 1189.15 458.294C1189.15 454.355 1189.15 450.557 1189.15 446.9V390.352ZM1332.09 490.788C1332.09 489.663 1332.09 486.146 1332.09 480.238C1332.09 474.33 1332.09 467.297 1332.09 459.138C1332.09 450.979 1332.09 442.258 1332.09 432.974C1332.09 423.409 1332.09 414.547 1332.09 406.388C1332.09 397.948 1332.09 390.774 1332.09 384.866C1332.09 378.677 1331.95 374.879 1331.67 373.472C1331.67 372.628 1330.54 372.206 1328.29 372.206C1326.04 371.925 1323.51 371.925 1320.7 372.206C1317.88 372.487 1315.07 372.909 1312.26 373.472C1309.44 373.753 1307.47 373.894 1306.35 373.894C1302.97 374.175 1300.16 374.457 1297.91 374.738C1295.66 374.738 1293.55 374.738 1291.58 374.738C1289.61 374.738 1287.5 374.738 1285.25 374.738C1283 374.457 1280.18 374.175 1276.81 373.894C1276.53 386.273 1276.24 400.902 1275.96 417.782C1275.96 434.381 1275.96 452.105 1275.96 470.954C1275.96 489.803 1275.96 509.215 1275.96 529.19C1275.96 548.883 1275.96 568.014 1275.96 586.582C1276.24 605.15 1276.39 622.593 1276.39 638.91C1276.67 654.946 1276.81 668.731 1276.81 680.266C1283.56 679.703 1289.19 679.563 1293.69 679.844C1298.19 680.125 1302.27 680.266 1305.93 680.266C1309.58 680.547 1313.1 680.547 1316.48 680.266C1320.13 679.985 1324.35 679.141 1329.14 677.734V676.046C1330.26 666.762 1330.82 657.478 1330.82 648.194C1330.82 638.91 1330.54 629.626 1329.98 620.342C1329.7 610.777 1329.42 601.352 1329.14 592.068C1328.85 582.503 1328.99 572.797 1329.56 562.95C1330.12 555.354 1332.09 549.727 1335.47 546.07C1338.84 542.131 1342.64 539.599 1346.86 538.474C1351.08 537.067 1355.3 536.786 1359.52 537.63C1364.02 538.193 1367.4 539.037 1369.65 540.162C1369.93 540.443 1370.21 540.584 1370.49 540.584C1370.77 540.584 1371.05 540.725 1371.34 541.006C1373.59 542.694 1375.27 545.085 1376.4 548.18C1377.81 551.275 1378.79 554.791 1379.35 558.73C1380.2 562.669 1380.76 566.748 1381.04 570.968C1381.32 574.907 1381.6 578.564 1381.89 581.94C1382.45 589.536 1382.73 597.695 1382.73 606.416C1383.01 615.137 1383.01 623.859 1382.73 632.58C1382.73 641.301 1382.73 649.741 1382.73 657.9C1382.73 666.059 1383.01 673.373 1383.57 679.844C1393.42 679.844 1402.14 679.844 1409.74 679.844C1417.61 680.125 1426.48 679.563 1436.32 678.156C1435.76 668.591 1435.62 657.478 1435.9 644.818C1436.18 632.158 1436.46 619.076 1436.75 605.572C1437.03 591.787 1437.17 578.283 1437.17 565.06C1437.45 551.556 1437.31 539.177 1436.75 527.924C1436.46 516.671 1435.48 507.105 1433.79 499.228C1432.38 491.069 1430.27 485.724 1427.46 483.192C1421.55 478.128 1414.94 474.611 1407.63 472.642C1400.31 470.673 1392.72 469.829 1384.84 470.11C1377.24 470.391 1369.79 471.798 1362.47 474.33C1355.16 476.862 1348.55 480.238 1342.64 484.458C1341.23 485.583 1339.4 486.709 1337.15 487.834C1335.18 488.959 1333.5 489.944 1332.09 490.788ZM1469.76 486.568C1468.92 489.663 1467.65 493.883 1465.97 499.228C1464.28 504.292 1463.29 508.371 1463.01 511.466C1462.17 516.811 1461.6 522.016 1461.32 527.08C1461.04 531.863 1460.9 536.786 1460.9 541.85C1461.75 551.134 1461.89 561.403 1461.32 572.656C1461.04 583.909 1461.18 595.163 1461.75 606.416C1462.31 617.388 1464 627.938 1466.81 638.066C1469.62 648.194 1474.83 656.634 1482.42 663.386C1492.27 673.233 1504.37 679.422 1518.72 681.954C1526.59 681.954 1535.31 682.235 1544.88 682.798C1554.44 683.642 1563.73 683.642 1572.73 682.798C1581.73 682.235 1590.03 680.547 1597.63 677.734C1605.51 674.921 1611.84 670.138 1616.62 663.386C1619.43 660.573 1621.54 655.368 1622.95 647.772C1624.64 640.176 1625.9 631.595 1626.75 622.03C1627.87 612.465 1628.58 602.477 1628.86 592.068C1629.42 581.659 1629.84 572.375 1630.12 564.216C1629.84 554.932 1629.56 545.929 1629.28 537.208C1629 528.205 1628.29 520.047 1627.17 512.732C1626.04 505.136 1624.36 498.525 1622.11 492.898C1619.85 487.271 1616.76 483.192 1612.82 480.66C1606.91 475.033 1599.88 470.813 1591.72 468C1583.56 464.905 1574.98 463.077 1565.98 462.514C1560.07 461.951 1554.44 461.951 1549.1 462.514C1544.04 462.795 1538.69 462.655 1533.06 462.092C1526.31 462.092 1519.56 462.514 1512.81 463.358C1506.34 464.202 1500.15 465.749 1494.24 468C1488.61 469.969 1483.55 472.501 1479.05 475.596C1474.83 478.691 1471.73 482.348 1469.76 486.568ZM1522.51 536.364C1526.17 531.863 1530.95 528.768 1536.86 527.08C1547.83 524.548 1556.7 525.533 1563.45 530.034C1570.2 534.535 1574.28 541.709 1575.69 551.556C1577.37 559.715 1577.8 568.436 1576.95 577.72C1576.39 586.723 1575.54 595.725 1574.42 604.728C1572.73 611.761 1569.5 616.403 1564.71 618.654C1561.06 620.623 1556.41 622.03 1550.79 622.874C1545.16 623.437 1539.67 623.155 1534.33 622.03C1529.27 620.623 1524.9 618.232 1521.25 614.856C1517.59 611.199 1515.9 606.135 1516.18 599.664C1516.75 589.817 1517.03 580.533 1517.03 571.812C1517.03 562.809 1517.59 553.807 1518.72 544.804C1519.56 540.303 1520.83 537.489 1522.51 536.364ZM1711.25 490.788C1710.97 486.849 1710.83 483.333 1710.83 480.238C1711.11 477.143 1710.97 473.205 1710.41 468.422C1710.41 467.578 1709.28 467.156 1707.03 467.156C1704.78 466.875 1702.25 466.875 1699.43 467.156C1696.62 467.437 1693.81 467.859 1690.99 468.422C1688.18 468.703 1686.21 468.844 1685.09 468.844C1681.71 469.125 1678.9 469.407 1676.65 469.688C1674.39 469.688 1672.28 469.688 1670.32 469.688C1668.35 469.688 1666.24 469.688 1663.99 469.688C1661.73 469.407 1658.92 469.125 1655.55 468.844C1654.42 505.98 1654.14 541.85 1654.7 576.454C1655.55 611.058 1655.97 645.662 1655.97 680.266C1662.72 679.703 1668.35 679.563 1672.85 679.844C1677.35 680.125 1681.43 680.266 1685.09 680.266C1688.74 680.547 1692.26 680.547 1695.64 680.266C1699.29 679.985 1703.51 679.141 1708.3 677.734V676.046C1709.42 666.762 1709.98 657.478 1709.98 648.194C1709.98 638.91 1709.7 629.626 1709.14 620.342C1708.86 610.777 1708.58 601.352 1708.3 592.068C1708.01 582.503 1708.15 572.797 1708.72 562.95C1709.28 555.354 1711.25 549.727 1714.63 546.07C1718 542.131 1721.8 539.599 1726.02 538.474C1730.24 537.067 1734.46 536.786 1738.68 537.63C1743.18 538.193 1746.56 539.037 1748.81 540.162C1749.09 540.443 1749.37 540.584 1749.65 540.584C1749.93 540.584 1750.21 540.725 1750.5 541.006C1752.75 542.694 1754.43 545.085 1755.56 548.18C1756.97 551.275 1757.95 554.791 1758.51 558.73C1759.36 562.669 1759.92 566.748 1760.2 570.968C1760.48 574.907 1760.76 578.564 1761.05 581.94C1761.61 589.536 1761.89 597.695 1761.89 606.416C1762.17 615.137 1762.17 623.859 1761.89 632.58C1761.89 641.301 1761.89 649.741 1761.89 657.9C1761.89 666.059 1762.17 673.373 1762.73 679.844C1772.58 679.844 1781.3 679.844 1788.9 679.844C1796.77 680.125 1805.64 679.563 1815.48 678.156C1814.92 668.591 1814.78 657.478 1815.06 644.818C1815.34 632.158 1815.62 619.076 1815.91 605.572C1816.19 591.787 1816.33 578.283 1816.33 565.06C1816.61 551.556 1816.47 539.177 1815.91 527.924C1815.62 516.671 1814.64 507.105 1812.95 499.228C1811.54 491.069 1809.43 485.724 1806.62 483.192C1800.71 478.128 1794.1 474.611 1786.79 472.642C1779.47 470.673 1771.88 469.829 1764 470.11C1756.4 470.391 1748.95 471.798 1741.63 474.33C1734.32 476.862 1727.71 480.238 1721.8 484.458C1720.39 485.583 1718.56 486.709 1716.31 487.834C1714.34 488.959 1712.66 489.944 1711.25 490.788Z" fill="white"/>
</g>
<g filter="url(#filter4_d_12_1)">
<path d="M1094.9 1057.84C1094.17 1056.97 1093.66 1056.24 1093.37 1055.66C1093.08 1055.08 1093.23 1054.28 1093.81 1053.26C1096.71 1048.32 1099.18 1042.95 1101.22 1037.13C1103.4 1031.32 1104.49 1025.36 1104.49 1019.26C1104.49 1011.12 1103.18 1004.29 1100.57 998.764C1097.95 993.096 1094.39 988.518 1089.88 985.03C1085.38 981.397 1080.15 978.781 1074.19 977.182C1068.37 975.583 1062.27 974.639 1055.88 974.348C1049.48 974.057 1043.01 974.348 1036.47 975.22C1029.93 976.092 1023.76 977.327 1017.94 978.926L1017.73 979.144C1018.16 1004.43 1018.16 1029.5 1017.73 1054.35C1017.29 1079.06 1017.51 1103.99 1018.38 1129.13C1019.11 1129.42 1019.83 1129.56 1020.56 1129.56C1021.43 1129.56 1022.3 1129.56 1023.18 1129.56C1028.41 1129.71 1034 1130 1039.96 1130.44C1046.07 1130.87 1052.1 1131.02 1058.06 1130.87C1064.16 1130.87 1070.05 1130.51 1075.71 1129.78C1081.38 1128.91 1086.54 1127.31 1091.19 1124.99C1095.84 1122.66 1099.77 1119.39 1102.96 1115.18C1106.31 1110.82 1108.56 1105.22 1109.72 1098.39C1110.59 1093.74 1110.74 1089.52 1110.16 1085.75C1109.58 1081.97 1108.49 1078.55 1106.89 1075.5C1105.43 1072.3 1103.62 1069.32 1101.44 1066.56C1099.4 1063.66 1097.22 1060.75 1094.9 1057.84ZM1074.41 1094.03C1072.95 1095.77 1071.21 1097.08 1069.17 1097.95C1067.28 1098.68 1065.18 1099.19 1062.85 1099.48C1060.67 1099.63 1058.42 1099.7 1056.09 1099.7C1053.91 1099.55 1051.81 1099.48 1049.77 1099.48L1049.34 1099.26C1048.17 1097.52 1047.37 1095.34 1046.94 1092.72C1046.5 1090.11 1046.28 1087.42 1046.28 1084.66C1046.43 1081.75 1046.72 1078.92 1047.16 1076.15C1047.59 1073.39 1048.1 1070.92 1048.68 1068.74C1051.44 1069.03 1054.28 1069.25 1057.18 1069.4C1060.09 1069.4 1062.92 1069.76 1065.69 1070.49C1067.57 1070.92 1069.39 1071.87 1071.14 1073.32C1072.88 1074.63 1074.19 1076.15 1075.06 1077.9C1076.08 1080.37 1076.59 1083.13 1076.59 1086.18C1076.73 1089.23 1076 1091.85 1074.41 1094.03ZM1074.19 1031.9C1073.02 1034.08 1071.43 1035.75 1069.39 1036.91C1067.5 1037.93 1065.39 1038.59 1063.07 1038.88C1060.74 1039.17 1058.35 1039.24 1055.88 1039.09C1053.4 1038.95 1051.08 1038.73 1048.9 1038.44C1047.59 1033.35 1047.16 1028.41 1047.59 1023.62C1048.17 1018.82 1048.32 1014.75 1048.03 1011.41C1050.21 1010.25 1052.9 1009.74 1056.09 1009.88C1059.44 1009.88 1062.56 1010.17 1065.47 1010.75C1067.79 1011.34 1069.83 1012.28 1071.57 1013.59C1073.46 1014.75 1074.99 1016.49 1076.15 1018.82C1077.31 1021.15 1077.53 1023.47 1076.8 1025.8C1076.08 1028.12 1075.2 1030.16 1074.19 1031.9ZM1208.38 1021.44C1203.73 1021.15 1199.59 1020.93 1195.95 1020.78C1192.47 1020.64 1189.49 1020.49 1187.02 1020.35C1186.58 1020.35 1185.78 1020.35 1184.62 1020.35C1183.46 1020.35 1182.29 1020.35 1181.13 1020.35C1179.97 1020.2 1178.88 1020.2 1177.86 1020.35C1176.99 1020.35 1176.55 1020.42 1176.55 1020.56C1176.55 1022.31 1176.33 1024.05 1175.9 1025.8C1175.61 1027.39 1175.53 1029.36 1175.68 1031.68C1174.66 1029.21 1173.43 1027.32 1171.97 1026.01C1170.52 1024.56 1168.85 1023.54 1166.96 1022.96C1165.07 1022.24 1162.96 1021.87 1160.64 1021.87C1158.46 1021.73 1156.06 1021.65 1153.44 1021.65C1148.36 1021.8 1143.56 1023.18 1139.06 1025.8C1134.55 1028.27 1130.63 1031.75 1127.28 1036.26C1124.09 1040.62 1121.54 1045.85 1119.65 1051.96C1117.76 1058.06 1116.82 1064.75 1116.82 1072.01C1116.82 1077.83 1117.4 1084.15 1118.56 1090.98C1119.87 1097.81 1121.83 1104.13 1124.45 1109.94C1127.07 1115.76 1130.34 1120.63 1134.26 1124.55C1138.33 1128.47 1143.2 1130.44 1148.87 1130.44C1153.95 1130.44 1159.11 1129.2 1164.34 1126.73C1169.72 1124.26 1174.15 1121.28 1177.64 1117.79C1177.64 1119.25 1177.5 1120.48 1177.21 1121.5C1176.92 1122.52 1176.77 1123.82 1176.77 1125.42C1176.77 1126.58 1176.92 1127.6 1177.21 1128.47C1177.64 1129.35 1178.37 1129.93 1179.39 1130.22C1180.98 1130.22 1182.51 1130.15 1183.96 1130C1185.56 1129.71 1187.16 1129.56 1188.76 1129.56C1191.09 1129.56 1193.41 1129.71 1195.74 1130C1198.21 1130.15 1200.6 1130.22 1202.93 1130.22H1205.55C1207.29 1129.93 1208.16 1128.84 1208.16 1126.95C1208.31 1125.06 1208.38 1123.17 1208.38 1121.28C1209.4 1105.73 1209.62 1090.4 1209.03 1075.28C1208.45 1060.02 1208.38 1044.54 1208.82 1028.85V1026.67C1208.82 1025.8 1208.74 1024.92 1208.6 1024.05C1208.6 1023.18 1208.53 1022.31 1208.38 1021.44ZM1144.94 1064.82C1145.67 1061.18 1147.7 1057.99 1151.05 1055.23C1154.53 1052.32 1159.26 1050.87 1165.22 1050.87C1168.27 1050.87 1170.52 1051.08 1171.97 1051.52C1173.57 1051.96 1174.66 1052.97 1175.24 1054.57C1175.97 1056.17 1176.33 1058.5 1176.33 1061.55C1176.48 1064.45 1176.55 1068.45 1176.55 1073.54C1176.55 1077.61 1176.48 1081.31 1176.33 1084.66C1176.33 1087.85 1175.9 1090.61 1175.03 1092.94C1174.3 1095.12 1172.99 1096.86 1171.1 1098.17C1169.36 1099.33 1166.67 1099.92 1163.04 1099.92C1156.93 1099.92 1152.14 1097.66 1148.65 1093.16C1145.31 1088.51 1143.63 1082.91 1143.63 1076.37C1143.63 1074.48 1143.71 1072.59 1143.85 1070.7C1144 1068.67 1144.36 1066.71 1144.94 1064.82ZM1311.4 1054.57C1311.4 1046.72 1309.95 1039.68 1307.04 1033.43C1304.14 1027.03 1299.27 1022.38 1292.44 1019.47C1288.66 1018.6 1284.52 1017.95 1280.01 1017.51C1275.51 1016.93 1271 1016.64 1266.5 1016.64C1261.99 1016.64 1257.7 1016.86 1253.63 1017.29C1249.71 1017.73 1246.37 1018.31 1243.61 1019.04C1236.48 1020.93 1230.96 1024.56 1227.04 1029.94C1223.26 1035.32 1221.22 1041.2 1220.93 1047.6C1220.79 1053.85 1222.53 1059.95 1226.17 1065.91C1229.94 1071.72 1235.9 1076.01 1244.04 1078.77C1248.11 1080.51 1252.25 1081.75 1256.47 1082.48C1260.68 1083.2 1264.46 1084.07 1267.8 1085.09C1271.15 1085.96 1273.83 1087.27 1275.87 1089.02C1277.9 1090.76 1278.7 1093.38 1278.27 1096.86C1278.41 1101.08 1277.1 1103.99 1274.34 1105.58C1271.58 1107.18 1268.53 1107.84 1265.19 1107.55C1261.84 1107.11 1258.65 1105.87 1255.6 1103.84C1252.69 1101.66 1251.16 1098.9 1251.02 1095.56C1246.51 1095.56 1241.21 1095.48 1235.1 1095.34C1229 1095.05 1223.55 1095.19 1218.75 1095.77V1096.21V1096.86C1218.75 1102.68 1219.92 1107.91 1222.24 1112.56C1224.71 1117.21 1228.05 1121.13 1232.27 1124.33C1236.63 1127.53 1241.79 1129.93 1247.75 1131.53C1253.71 1133.12 1260.39 1133.78 1267.8 1133.49C1276.23 1133.63 1284.01 1132.18 1291.13 1129.13C1298.25 1126.08 1303.48 1120.99 1306.83 1113.87C1309.59 1105.87 1310.6 1099.19 1309.88 1093.81C1309.15 1088.29 1307.19 1082.91 1303.99 1077.68C1300.65 1073.32 1295.42 1070.2 1288.3 1068.31C1281.17 1066.27 1273.54 1064.67 1265.41 1063.51C1262.06 1062.35 1259.52 1060.6 1257.78 1058.28C1256.03 1055.95 1255.16 1053.63 1255.16 1051.3C1255.16 1048.98 1255.96 1046.87 1257.56 1044.98C1259.3 1042.95 1261.84 1041.64 1265.19 1041.06C1267.08 1040.91 1268.97 1041.2 1270.86 1041.93C1272.89 1042.51 1274.63 1043.45 1276.09 1044.76C1277.69 1046.07 1278.85 1047.6 1279.58 1049.34C1280.45 1051.08 1280.67 1052.83 1280.23 1054.57C1285.17 1055.59 1290.4 1056.03 1295.93 1055.88C1301.59 1055.73 1306.75 1055.3 1311.4 1054.57ZM1348.94 1020.35C1344.29 1020.49 1340.29 1020.49 1336.95 1020.35C1333.61 1020.2 1330.99 1020.06 1329.1 1019.91C1328.38 1019.91 1327.29 1019.84 1325.83 1019.69C1324.53 1019.55 1323.58 1019.55 1323 1019.69V1019.91C1322.13 1028.48 1321.69 1037.35 1321.69 1046.51C1321.69 1055.52 1321.84 1064.67 1322.13 1073.97C1322.42 1083.28 1322.56 1092.65 1322.56 1102.1C1322.71 1111.54 1322.42 1120.84 1321.69 1130C1322.71 1129.71 1324.74 1129.64 1327.8 1129.78C1330.85 1129.93 1334.05 1130 1337.39 1130C1340.88 1130.15 1344.07 1130.15 1346.98 1130C1349.89 1130 1351.7 1129.56 1352.43 1128.69C1351.41 1111.11 1351.12 1093.16 1351.56 1074.85C1352.14 1056.53 1352.5 1038.59 1352.65 1021V1020.35H1348.94ZM1322.13 972.822C1321.98 979.507 1322.06 985.175 1322.35 989.826C1322.78 994.331 1323 998.691 1323 1002.91C1325.76 1002.76 1328.74 1002.83 1331.94 1003.12C1335.14 1003.27 1338.11 1003.41 1340.88 1003.56C1343.78 1003.56 1346.25 1003.41 1348.29 1003.12C1350.47 1002.83 1351.85 1002.25 1352.43 1001.38C1352.43 999.2 1352.36 996.729 1352.21 993.968C1352.21 991.061 1352.14 988.3 1351.99 985.684C1351.99 982.923 1351.92 980.452 1351.78 978.272C1351.78 975.947 1351.78 974.348 1351.78 973.476L1322.13 972.822ZM1451.41 1088.14C1449.81 1087.71 1447.78 1087.49 1445.3 1087.49C1442.83 1087.34 1440.22 1087.34 1437.46 1087.49C1434.7 1087.64 1432.08 1087.78 1429.61 1087.93C1427.14 1087.93 1425.18 1087.85 1423.72 1087.71C1423.29 1089.6 1422.63 1091.78 1421.76 1094.25C1421.03 1096.57 1419.94 1098.24 1418.49 1099.26C1416.75 1100.42 1414.42 1101.22 1411.51 1101.66C1408.61 1101.95 1405.77 1101.81 1403.01 1101.22C1400.25 1100.5 1397.85 1099.19 1395.82 1097.3C1393.93 1095.41 1393.13 1092.79 1393.42 1089.45C1393.71 1084.37 1393.86 1079.5 1393.86 1074.85C1393.86 1070.2 1394.15 1065.62 1394.73 1061.11C1395.16 1058.79 1395.82 1057.33 1396.69 1056.75C1398.58 1054.43 1401.05 1052.83 1404.1 1051.96C1409.77 1050.5 1414.35 1051.23 1417.84 1054.14C1421.32 1056.9 1423.43 1060.82 1424.16 1065.91C1426.05 1066.2 1428.16 1066.49 1430.48 1066.78C1432.95 1067.07 1435.42 1067.29 1437.89 1067.43C1440.51 1067.58 1442.98 1067.65 1445.3 1067.65C1447.78 1067.65 1449.96 1067.43 1451.84 1067C1451.7 1062.2 1451.55 1057.77 1451.41 1053.7C1451.41 1049.49 1451.12 1045.71 1450.54 1042.36C1449.96 1039.02 1449.08 1036.11 1447.92 1033.64C1446.9 1031.17 1445.38 1029.21 1443.34 1027.76C1440.29 1024.85 1436.66 1022.67 1432.44 1021.22C1428.23 1019.76 1423.8 1018.89 1419.14 1018.6C1416.09 1018.31 1413.19 1018.31 1410.42 1018.6C1407.81 1018.75 1405.05 1018.67 1402.14 1018.38C1398.65 1018.38 1395.16 1018.6 1391.68 1019.04C1388.33 1019.47 1385.14 1020.27 1382.08 1021.44C1379.18 1022.45 1376.56 1023.76 1374.24 1025.36C1372.06 1026.96 1370.46 1028.85 1369.44 1031.03C1369 1032.48 1368.35 1034.59 1367.48 1037.35C1366.61 1040.11 1366.1 1042.29 1365.95 1043.89C1365.08 1049.12 1364.64 1054.35 1364.64 1059.59C1365.23 1064.38 1365.37 1069.69 1365.08 1075.5C1364.94 1081.31 1365.01 1087.13 1365.3 1092.94C1365.59 1098.61 1366.46 1104.06 1367.91 1109.29C1369.37 1114.52 1372.06 1118.88 1375.98 1122.37C1381.07 1127.46 1387.32 1130.65 1394.73 1131.96C1398.8 1131.96 1403.3 1132.11 1408.24 1132.4C1413.19 1132.83 1417.98 1132.83 1422.63 1132.4C1427.28 1132.11 1431.57 1131.24 1435.49 1129.78C1439.56 1128.33 1442.83 1125.86 1445.3 1122.37C1446.32 1121.35 1447.12 1119.75 1447.7 1117.57C1448.43 1115.25 1449.01 1112.56 1449.45 1109.51C1449.88 1106.31 1450.25 1102.9 1450.54 1099.26C1450.83 1095.63 1451.12 1091.92 1451.41 1088.14ZM1551.12 1054.57C1551.12 1046.72 1549.66 1039.68 1546.76 1033.43C1543.85 1027.03 1538.98 1022.38 1532.15 1019.47C1528.37 1018.6 1524.23 1017.95 1519.73 1017.51C1515.22 1016.93 1510.72 1016.64 1506.21 1016.64C1501.7 1016.64 1497.42 1016.86 1493.35 1017.29C1489.42 1017.73 1486.08 1018.31 1483.32 1019.04C1476.2 1020.93 1470.68 1024.56 1466.75 1029.94C1462.97 1035.32 1460.94 1041.2 1460.65 1047.6C1460.5 1053.85 1462.25 1059.95 1465.88 1065.91C1469.66 1071.72 1475.62 1076.01 1483.76 1078.77C1487.83 1080.51 1491.97 1081.75 1496.18 1082.48C1500.4 1083.2 1504.18 1084.07 1507.52 1085.09C1510.86 1085.96 1513.55 1087.27 1515.58 1089.02C1517.62 1090.76 1518.42 1093.38 1517.98 1096.86C1518.13 1101.08 1516.82 1103.99 1514.06 1105.58C1511.3 1107.18 1508.24 1107.84 1504.9 1107.55C1501.56 1107.11 1498.36 1105.87 1495.31 1103.84C1492.4 1101.66 1490.88 1098.9 1490.73 1095.56C1486.23 1095.56 1480.92 1095.48 1474.82 1095.34C1468.71 1095.05 1463.26 1095.19 1458.47 1095.77V1096.21V1096.86C1458.47 1102.68 1459.63 1107.91 1461.96 1112.56C1464.43 1117.21 1467.77 1121.13 1471.98 1124.33C1476.34 1127.53 1481.5 1129.93 1487.46 1131.53C1493.42 1133.12 1500.11 1133.78 1507.52 1133.49C1515.95 1133.63 1523.72 1132.18 1530.84 1129.13C1537.97 1126.08 1543.2 1120.99 1546.54 1113.87C1549.3 1105.87 1550.32 1099.19 1549.59 1093.81C1548.87 1088.29 1546.9 1082.91 1543.71 1077.68C1540.36 1073.32 1535.13 1070.2 1528.01 1068.31C1520.89 1066.27 1513.26 1064.67 1505.12 1063.51C1501.78 1062.35 1499.23 1060.6 1497.49 1058.28C1495.75 1055.95 1494.87 1053.63 1494.87 1051.3C1494.87 1048.98 1495.67 1046.87 1497.27 1044.98C1499.02 1042.95 1501.56 1041.64 1504.9 1041.06C1506.79 1040.91 1508.68 1041.2 1510.57 1041.93C1512.6 1042.51 1514.35 1043.45 1515.8 1044.76C1517.4 1046.07 1518.56 1047.6 1519.29 1049.34C1520.16 1051.08 1520.38 1052.83 1519.94 1054.57C1524.89 1055.59 1530.12 1056.03 1535.64 1055.88C1541.31 1055.73 1546.47 1055.3 1551.12 1054.57Z" fill="white"/>
</g>
<g filter="url(#filter5_d_12_1)">
<path d="M265.521 944.445H234.106V993.885H265.521V1046.41H234.106V1118H181.576V1046.41H142.951V1118H90.4206V1046.41H58.4906V993.885H90.4206V944.445H58.4906V891.915H90.4206V837.84H142.951V891.915H181.576V837.84H234.106V891.915H265.521V944.445ZM181.576 993.885V944.445H142.951V993.885H181.576ZM504.565 847.625V1055.17C504.565 1100.49 483.278 1123.15 440.705 1123.15H379.42C336.847 1123.15 315.56 1100.49 315.56 1055.17V847.625C315.56 802.305 336.847 779.645 379.42 779.645H440.705C483.278 779.645 504.565 802.305 504.565 847.625ZM434.525 1063.41V838.87C434.525 836.123 433.495 833.72 431.435 831.66C429.718 829.6 427.487 828.57 424.74 828.57H395.385C392.638 828.57 390.235 829.6 388.175 831.66C386.458 833.72 385.6 836.123 385.6 838.87V1063.41C385.6 1066.16 386.458 1068.56 388.175 1070.62C390.235 1072.68 392.638 1073.71 395.385 1073.71H424.74C427.487 1073.71 429.718 1072.68 431.435 1070.62C433.495 1068.56 434.525 1066.16 434.525 1063.41Z" fill="white"/>
</g>
<g filter="url(#filter6_d_12_1)">
<path d="M299.267 534.601H299.276H299.285H299.292H299.299H299.306L299.308 534.601C299.35 534.601 299.403 534.602 299.469 534.602C299.6 534.602 299.779 534.601 300.002 534.597C300.449 534.59 301.074 534.571 301.852 534.529C303.407 534.445 305.586 534.265 308.186 533.881C313.352 533.118 320.348 531.524 327.429 528.157C334.534 524.778 341.862 519.544 347.4 511.464C352.97 503.338 356.449 492.74 356.449 479.135V478.843V478.552V478.261V477.971V477.681V477.391V477.102V476.814V476.525V476.237V475.95V475.663V475.376V475.09V474.804V474.518V474.233V473.948V473.664V473.38V473.097V472.814V472.531V472.249V471.967V471.686V471.405V471.124V470.844V470.564V470.285V470.006V469.727V469.449V469.171V468.894V468.617V468.341V468.065V467.789V467.514V467.239V466.965V466.691V466.418V466.145V465.872V465.6V465.328V465.057V464.786V464.515V464.245V463.976V463.707V463.438V463.17V462.902V462.634V462.367V462.101V461.835V461.569V461.304V461.039V460.774V460.51V460.247V459.984V459.721V459.459V459.197V458.936V458.675V458.415V458.155V457.895V457.636V457.378V457.12V456.862V456.605V456.348V456.091V455.836V455.58V455.325V455.071V454.816V454.563V454.31V454.057V453.805V453.553V453.302V453.051V452.8V452.55V452.301V452.052V451.803V451.555V451.307V451.06V450.813V450.567V450.321V450.076V449.831V449.587V449.343V449.1V448.857V448.614V448.372V448.131V447.889V447.649V447.409V447.169V446.93V446.691V446.453V446.215V445.978V445.741V445.505V445.269V445.034V444.799V444.565V444.331V444.097V443.864V443.632V443.4V443.169V442.938V442.707V442.477V442.248V442.019V441.79V441.562V441.335V441.108V440.881V440.655V440.43V440.204V439.98V439.756V439.532V439.309V439.087V438.865V438.643V438.422V438.202V437.982V437.762V437.543V437.324V437.106V436.889V436.672V436.455V436.239V436.024V435.809V435.595V435.381V435.167V434.954V434.742V434.53V434.319V434.108V433.897V433.688V433.478V433.269V433.061V432.853V432.646V432.439V432.233V432.028V431.822V431.618V431.414V431.21V431.007V430.805V430.603V430.401V430.2V430V429.8V429.601V429.402V429.204V429.006V428.809V428.612V428.416V428.22V428.025V427.831V427.637V427.443V427.25V427.058V426.866V426.675V426.484V426.294V426.104V425.915V425.726V425.538V425.351V425.164V424.977V424.792V424.606V424.422V424.237V424.054V423.871V423.688V423.506V423.325V423.144V422.963V422.784V422.604V422.426V422.248V422.07V421.893V421.717V421.541V421.366V421.191V421.017V420.843V420.67V420.497V420.325V420.154V419.983V419.813V419.643V419.474V419.306V419.138V418.97V418.804V418.637V418.472V418.307V418.142V417.978V417.815V417.652V417.49V417.328V417.167V417.007V416.847V416.687V416.529V416.37V416.213V416.056V415.899V415.744V415.588V415.434V415.28V415.126V414.973V414.821V414.669V414.518V414.368V414.218V414.068V413.919V413.771V413.624V413.477V413.33V413.184V413.039V412.895V412.751V412.607V412.464V412.322V412.181V412.04V411.899V411.759V411.62V411.482V411.344V411.206V411.069V410.933V410.798V410.663V410.528V410.395V410.262V410.129V409.997V409.866V409.735V409.605V409.476V409.347V409.219V409.091V408.964V408.838V408.712V408.587V408.462V408.338V408.215V408.092V407.97V407.849V407.728V407.608V407.488V407.369V407.251V407.134V407.017V406.9V406.784V406.669V406.555V406.441V406.328V406.215V406.103V405.992V405.881V405.771V405.661V405.553V405.444V405.337V405.23V405.124V405.018V404.913V404.809V404.705V404.602V404.5V404.398V404.297V404.196V404.097V403.997V403.899V403.801V403.704V403.607V403.511V403.416V403.321V403.227V403.134V403.041V402.949V402.858V402.767V402.677V402.588V402.499V402.411V402.324V402.237V402.151V402.065V401.981V401.896V401.813V401.73V401.648V401.567V401.486V401.406V401.326V401.248V401.169V401.092V401.015V400.939V400.864V400.789V400.715V400.641V400.569V400.497V400.425V400.355V400.285V400.215V400.147V400.079V400.011V399.945V399.879V399.813V399.749V399.685V399.622V399.559V399.497V399.436V399.376V399.316V399.257V399.198V399.141V399.083V399.027V398.971V398.917V398.862V398.809V398.756V398.704V398.652V398.601V398.551V398.502V398.453V398.405V398.358V398.311V398.265V398.22V398.176V398.132V398.089V398.046V398.005V397.964V397.923V397.884V397.845V397.807V397.769V397.733V397.697V397.661V397.627V397.593V397.56V397.527V397.495V397.464V397.434V397.404V397.376V397.347V397.32V397.293V397.267V397.242V397.217V397.208C356.461 397.094 356.474 396.966 356.486 396.825C356.531 396.308 356.574 395.608 356.584 394.751C356.604 393.039 356.492 390.681 355.994 387.89C354.993 382.281 352.43 374.95 346.323 367.715C334.041 353.168 308.791 340.5 258.148 340.5C209.854 340.5 185.446 350.941 173.245 363.045C167.107 369.133 164.32 375.402 163.133 380.345C162.546 382.791 162.358 384.874 162.327 386.409C162.311 387.177 162.334 387.811 162.366 388.29C162.375 388.429 162.385 388.556 162.396 388.669L162.501 431.14L162.517 437.477H133.218C133.06 437.463 132.862 437.449 132.628 437.434C132.062 437.4 131.277 437.368 130.305 437.367C128.364 437.366 125.657 437.488 122.438 437.97C116.007 438.931 107.417 441.342 98.82 447.15C81.2652 459.01 65.5 483.711 65.5 533.199C65.5 582.414 79.1371 607.768 94.4045 620.592C101.955 626.934 109.568 629.908 115.362 631.282C118.253 631.968 120.695 632.257 122.464 632.372C123.349 632.43 124.07 632.444 124.598 632.442C124.862 632.441 125.079 632.436 125.245 632.43C125.272 632.429 125.297 632.428 125.321 632.427H156.902H163.402V625.927V581.316V581.211L163.399 581.123L163.399 581.121C163.399 581.113 163.399 581.093 163.398 581.061C163.397 580.997 163.396 580.885 163.396 580.729C163.397 580.417 163.403 579.93 163.429 579.291C163.481 578.013 163.609 576.143 163.919 573.884C164.543 569.331 165.878 563.373 168.671 557.5C171.449 551.658 175.61 546.016 181.874 541.814C188.105 537.635 196.83 534.601 209.223 534.601H209.54H209.856H210.171H210.486H210.801H211.115H211.429H211.743H212.056H212.369H212.681H212.993H213.304H213.615H213.925H214.236H214.545H214.855H215.163H215.472H215.78H216.087H216.395H216.701H217.007H217.313H217.619H217.924H218.228H218.532H218.836H219.139H219.442H219.744H220.046H220.348H220.649H220.95H221.25H221.549H221.849H222.148H222.446H222.744H223.041H223.338H223.635H223.931H224.227H224.522H224.817H225.111H225.405H225.699H225.992H226.284H226.576H226.868H227.159H227.45H227.74H228.03H228.319H228.608H228.896H229.184H229.472H229.759H230.045H230.331H230.617H230.902H231.187H231.471H231.755H232.038H232.321H232.603H232.885H233.166H233.447H233.727H234.007H234.287H234.566H234.844H235.122H235.4H235.677H235.953H236.229H236.505H236.78H237.055H237.329H237.602H237.876H238.148H238.42H238.692H238.963H239.234H239.504H239.774H240.043H240.312H240.58H240.848H241.115H241.382H241.648H241.914H242.179H242.444H242.708H242.971H243.235H243.497H243.76H244.021H244.282H244.543H244.803H245.063H245.322H245.581H245.839H246.096H246.353H246.61H246.866H247.122H247.377H247.631H247.885H248.139H248.391H248.644H248.896H249.147H249.398H249.648H249.898H250.147H250.396H250.644H250.892H251.139H251.386H251.632H251.877H252.122H252.367H252.611H252.854H253.097H253.339H253.581H253.823H254.063H254.303H254.543H254.782H255.021H255.259H255.496H255.733H255.97H256.205H256.441H256.675H256.91H257.143H257.376H257.609H257.841H258.072H258.303H258.533H258.763H258.992H259.221H259.449H259.677H259.904H260.13H260.356H260.581H260.806H261.03H261.254H261.477H261.699H261.921H262.142H262.363H262.583H262.803H263.022H263.24H263.458H263.676H263.892H264.108H264.324H264.539H264.754H264.967H265.181H265.393H265.605H265.817H266.028H266.238H266.448H266.657H266.866H267.074H267.281H267.488H267.695H267.9H268.105H268.31H268.514H268.717H268.92H269.122H269.323H269.524H269.725H269.924H270.123H270.322H270.52H270.717H270.914H271.11H271.306H271.501H271.695H271.889H272.082H272.274H272.466H272.657H272.848H273.038H273.227H273.416H273.605H273.792H273.979H274.165H274.351H274.536H274.721H274.905H275.088H275.271H275.453H275.634H275.815H275.995H276.175H276.354H276.532H276.71H276.887H277.063H277.239H277.414H277.588H277.762H277.935H278.108H278.28H278.451H278.622H278.792H278.962H279.13H279.299H279.466H279.633H279.799H279.965H280.13H280.294H280.458H280.621H280.783H280.945H281.106H281.266H281.426H281.585H281.744H281.901H282.059H282.215H282.371H282.526H282.681H282.835H282.988H283.14H283.292H283.444H283.594H283.744H283.893H284.042H284.19H284.337H284.484H284.63H284.775H284.919H285.063H285.207H285.349H285.491H285.632H285.773H285.913H286.052H286.191H286.328H286.466H286.602H286.738H286.873H287.008H287.141H287.275H287.407H287.539H287.67H287.8H287.93H288.059H288.187H288.315H288.442H288.568H288.693H288.818H288.942H289.066H289.189H289.311H289.432H289.553H289.673H289.792H289.911H290.029H290.146H290.262H290.378H290.493H290.608H290.721H290.834H290.947H291.058H291.169H291.279H291.388H291.497H291.605H291.712H291.819H291.925H292.03H292.135H292.238H292.341H292.444H292.545H292.646H292.746H292.845H292.944H293.042H293.139H293.236H293.332H293.427H293.521H293.615H293.708H293.8H293.891H293.982H294.072H294.161H294.249H294.337H294.424H294.511H294.596H294.681H294.765H294.848H294.931H295.013H295.094H295.174H295.254H295.333H295.411H295.488H295.565H295.641H295.716H295.79H295.864H295.937H296.009H296.081H296.151H296.221H296.29H296.359H296.426H296.493H296.559H296.625H296.689H296.753H296.816H296.878H296.94H297.001H297.061H297.12H297.178H297.236H297.293H297.349H297.405H297.459H297.513H297.566H297.619H297.67H297.721H297.771H297.82H297.869H297.917H297.963H298.01H298.055H298.1H298.143H298.186H298.229H298.27H298.311H298.351H298.39H298.428H298.465H298.502H298.538H298.573H298.608H298.641H298.674H298.706H298.737H298.768H298.797H298.826H298.854H298.881H298.908H298.933H298.958H298.982H299.005H299.028H299.049H299.07H299.09H299.109H299.127H299.145H299.162H299.178H299.193H299.207H299.221H299.233H299.245H299.256H299.267ZM356.449 396.816C356.449 396.816 356.449 396.816 356.449 396.816C356.449 396.816 356.449 396.816 349.949 396.816H356.449ZM208.056 382.285C213.499 382.285 217.9 386.681 217.9 392.142C217.9 397.604 213.499 402 208.056 402C202.612 402 198.212 397.604 198.212 392.142C198.212 386.681 202.612 382.285 208.056 382.285Z" fill="url(#paint0_linear_12_1)" stroke="white" stroke-width="13"/>
<path d="M219.724 532.762H219.715H219.708H219.701L219.692 532.762C219.65 532.761 219.597 532.761 219.531 532.761C219.4 532.761 219.221 532.762 218.998 532.766C218.552 532.773 217.927 532.791 217.148 532.833C215.593 532.917 213.414 533.098 210.814 533.482C205.648 534.245 198.652 535.838 191.571 539.206C184.466 542.584 177.138 547.819 171.6 555.899C166.03 564.025 162.551 574.623 162.551 588.228V588.52V588.811V589.102V589.392V589.682V589.971V590.26V590.549V590.838V591.125V591.413V591.7V591.987V592.273V592.559V592.845V593.13V593.414V593.699V593.983V594.266V594.549V594.832V595.114V595.396V595.677V595.958V596.239V596.519V596.799V597.078V597.357V597.636V597.914V598.191V598.469V598.745V599.022V599.298V599.573V599.849V600.123V600.398V600.672V600.945V601.218V601.491V601.763V602.035V602.306V602.577V602.847V603.117V603.387V603.656V603.925V604.193V604.461V604.728V604.995V605.262V605.528V605.794V606.059V606.324V606.588V606.852V607.116V607.379V607.641V607.904V608.165V608.427V608.687V608.948V609.208V609.467V609.726V609.985V610.243V610.501V610.758V611.015V611.271V611.527V611.783V612.038V612.292V612.546V612.8V613.053V613.306V613.558V613.81V614.061V614.312V614.563V614.813V615.062V615.311V615.56V615.808V616.055V616.303V616.549V616.796V617.041V617.287V617.531V617.776V618.02V618.263V618.506V618.749V618.991V619.232V619.473V619.714V619.954V620.194V620.433V620.672V620.91V621.147V621.385V621.622V621.858V622.094V622.329V622.564V622.798V623.032V623.265V623.498V623.731V623.963V624.194V624.425V624.656V624.886V625.115V625.344V625.573V625.801V626.028V626.255V626.482V626.708V626.933V627.158V627.383V627.607V627.83V628.053V628.276V628.498V628.72V628.941V629.161V629.381V629.601V629.82V630.038V630.256V630.474V630.691V630.907V631.123V631.339V631.554V631.768V631.982V632.196V632.409V632.621V632.833V633.044V633.255V633.465V633.675V633.885V634.093V634.302V634.509V634.717V634.923V635.13V635.335V635.54V635.745V635.949V636.153V636.356V636.558V636.76V636.962V637.163V637.363V637.563V637.762V637.961V638.159V638.357V638.554V638.751V638.947V639.143V639.338V639.532V639.726V639.92V640.113V640.305V640.497V640.688V640.879V641.069V641.259V641.448V641.636V641.824V642.012V642.199V642.385V642.571V642.756V642.941V643.125V643.309V643.492V643.675V643.857V644.038V644.219V644.399V644.579V644.758V644.937V645.115V645.293V645.47V645.646V645.822V645.997V646.172V646.346V646.52V646.693V646.865V647.037V647.209V647.379V647.55V647.719V647.888V648.057V648.225V648.392V648.559V648.725V648.891V649.056V649.221V649.385V649.548V649.711V649.873V650.035V650.196V650.356V650.516V650.675V650.834V650.992V651.15V651.307V651.463V651.619V651.774V651.929V652.083V652.237V652.39V652.542V652.694V652.845V652.995V653.145V653.295V653.443V653.592V653.739V653.886V654.032V654.178V654.323V654.468V654.612V654.755V654.898V655.041V655.182V655.323V655.464V655.603V655.743V655.881V656.019V656.157V656.293V656.429V656.565V656.7V656.834V656.968V657.101V657.234V657.366V657.497V657.628V657.758V657.887V658.016V658.144V658.272V658.399V658.525V658.651V658.776V658.901V659.025V659.148V659.27V659.392V659.514V659.635V659.755V659.874V659.993V660.112V660.229V660.346V660.463V660.578V660.694V660.808V660.922V661.035V661.148V661.26V661.371V661.482V661.592V661.701V661.81V661.918V662.026V662.133V662.239V662.345V662.45V662.554V662.658V662.761V662.863V662.965V663.066V663.166V663.266V663.365V663.464V663.562V663.659V663.756V663.852V663.947V664.041V664.135V664.229V664.321V664.413V664.505V664.595V664.686V664.775V664.864V664.952V665.039V665.126V665.212V665.297V665.382V665.466V665.55V665.633V665.715V665.796V665.877V665.957V666.036V666.115V666.193V666.271V666.348V666.424V666.499V666.574V666.648V666.721V666.794V666.866V666.937V667.008V667.078V667.148V667.216V667.284V667.352V667.418V667.484V667.549V667.614V667.678V667.741V667.804V667.866V667.927V667.987V668.047V668.106V668.165V668.222V668.279V668.336V668.391V668.446V668.501V668.554V668.607V668.659V668.711V668.761V668.812V668.861V668.91V668.958V669.005V669.052V669.098V669.143V669.187V669.231V669.274V669.317V669.358V669.399V669.439V669.479V669.518V669.556V669.593V669.63V669.666V669.702V669.736V669.77V669.803V669.836V669.867V669.898V669.929V669.958V669.987V670.015V670.043V670.07V670.096V670.121V670.145V670.155C162.539 670.269 162.526 670.397 162.514 670.538C162.469 671.055 162.426 671.754 162.416 672.612C162.396 674.323 162.508 676.682 163.006 679.473C164.007 685.082 166.57 692.413 172.677 699.648C184.959 714.195 210.21 726.863 260.852 726.863C309.146 726.863 333.554 716.422 345.755 704.318C351.893 698.23 354.68 691.96 355.867 687.018C356.454 684.572 356.642 682.489 356.673 680.954C356.689 680.186 356.666 679.552 356.634 679.073C356.629 679.001 356.624 678.932 356.619 678.867C356.614 678.806 356.609 678.748 356.604 678.694L356.499 636.222L356.483 629.886H385.782C385.941 629.899 386.138 629.914 386.372 629.928C386.938 629.963 387.723 629.995 388.695 629.996C390.636 629.997 393.343 629.874 396.562 629.393C402.993 628.431 411.583 626.02 420.18 620.212C437.735 608.353 453.5 583.652 453.5 534.163C453.5 484.949 439.863 459.594 424.596 446.771C417.045 440.429 409.432 437.455 403.638 436.081C400.747 435.395 398.305 435.106 396.536 434.991C395.651 434.933 394.93 434.919 394.402 434.921C394.138 434.922 393.921 434.927 393.755 434.933C393.728 434.934 393.703 434.935 393.678 434.936H362.098H355.598V441.436V486.047V486.151L355.601 486.24L355.601 486.242C355.601 486.25 355.601 486.27 355.602 486.302C355.603 486.366 355.604 486.478 355.604 486.634C355.603 486.945 355.597 487.433 355.571 488.071C355.519 489.35 355.391 491.219 355.081 493.479C354.457 498.031 353.122 503.99 350.329 509.863C347.551 515.705 343.39 521.347 337.126 525.549C330.895 529.728 322.17 532.762 309.777 532.762H309.46H309.144H308.829H308.514H308.199H307.885H307.571H307.257H306.944H306.632H306.319H306.007H305.696H305.385H305.075H304.764H304.455H304.145H303.837H303.528H303.22H302.913H302.606H302.299H301.993H301.687H301.381H301.076H300.772H300.468H300.164H299.861H299.558H299.256H298.954H298.652H298.351H298.05H297.75H297.451H297.151H296.853H296.554H296.256H295.959H295.662H295.365H295.069H294.773H294.478H294.183H293.889H293.595H293.301H293.008H292.716H292.424H292.132H291.841H291.55H291.26H290.97H290.681H290.392H290.104H289.816H289.528H289.241H288.955H288.669H288.383H288.098H287.813H287.529H287.246H286.962H286.68H286.397H286.115H285.834H285.553H285.273H284.993H284.713H284.434H284.156H283.878H283.6H283.323H283.047H282.771H282.495H282.22H281.945H281.671H281.398H281.125H280.852H280.58H280.308H280.037H279.766H279.496H279.226H278.957H278.688H278.42H278.152H277.885H277.618H277.352H277.086H276.821H276.557H276.292H276.029H275.765H275.503H275.241H274.979H274.718H274.457H274.197H273.937H273.678H273.419H273.161H272.904H272.647H272.39H272.134H271.878H271.623H271.369H271.115H270.862H270.609H270.356H270.104H269.853H269.602H269.352H269.102H268.853H268.604H268.356H268.108H267.861H267.614H267.368H267.123H266.878H266.633H266.389H266.146H265.903H265.661H265.419H265.177H264.937H264.697H264.457H264.218H263.979H263.741H263.504H263.267H263.031H262.795H262.559H262.325H262.09H261.857H261.624H261.391H261.159H260.928H260.697H260.467H260.237H260.008H259.779H259.551H259.323H259.096H258.87H258.644H258.419H258.194H257.97H257.746H257.523H257.301H257.079H256.858H256.637H256.417H256.197H255.978H255.76H255.542H255.325H255.108H254.892H254.676H254.461H254.247H254.033H253.819H253.607H253.395H253.183H252.972H252.762H252.552H252.343H252.134H251.926H251.719H251.512H251.305H251.1H250.895H250.69H250.486H250.283H250.08H249.878H249.677H249.476H249.275H249.076H248.877H248.678H248.48H248.283H248.086H247.89H247.694H247.499H247.305H247.111H246.918H246.726H246.534H246.343H246.152H245.962H245.773H245.584H245.396H245.208H245.021H244.835H244.649H244.464H244.279H244.095H243.912H243.729H243.547H243.366H243.185H243.005H242.825H242.646H242.468H242.291H242.114H241.937H241.761H241.586H241.412H241.238H241.065H240.892H240.72H240.549H240.378H240.208H240.038H239.87H239.701H239.534H239.367H239.201H239.035H238.87H238.706H238.542H238.379H238.217H238.055H237.894H237.734H237.574H237.415H237.256H237.099H236.941H236.785H236.629H236.474H236.319H236.165H236.012H235.86H235.708H235.557H235.406H235.256H235.107H234.958H234.81H234.663H234.516H234.37H234.225H234.081H233.937H233.793H233.651H233.509H233.368H233.227H233.087H232.948H232.809H232.672H232.534H232.398H232.262H232.127H231.992H231.859H231.725H231.593H231.461H231.33H231.2H231.07H230.941H230.813H230.685H230.558H230.432H230.307H230.182H230.058H229.934H229.811H229.689H229.568H229.447H229.327H229.208H229.089H228.971H228.854H228.738H228.622H228.507H228.392H228.279H228.166H228.054H227.942H227.831H227.721H227.612H227.503H227.395H227.288H227.181H227.075H226.97H226.866H226.762H226.659H226.557H226.455H226.354H226.254H226.155H226.056H225.958H225.861H225.764H225.668H225.573H225.479H225.385H225.292H225.2H225.109H225.018H224.928H224.839H224.751H224.663H224.576H224.49H224.404H224.319H224.235H224.152H224.069H223.987H223.906H223.826H223.746H223.667H223.589H223.512H223.435H223.359H223.284H223.21H223.136H223.063H222.991H222.92H222.849H222.779H222.71H222.641H222.574H222.507H222.441H222.375H222.311H222.247H222.184H222.122H222.06H221.999H221.939H221.88H221.822H221.764H221.707H221.651H221.595H221.541H221.487H221.434H221.381H221.33H221.279H221.229H221.18H221.131H221.083H221.037H220.99H220.945H220.9H220.857H220.814H220.771H220.73H220.689H220.649H220.61H220.572H220.535H220.498H220.462H220.427H220.392H220.359H220.326H220.294H220.263H220.233H220.203H220.174H220.146H220.119H220.092H220.067H220.042H220.018H219.995H219.972H219.951H219.93H219.91H219.891H219.873H219.855H219.838H219.822H219.807H219.793H219.779H219.767H219.755H219.744H219.733H219.724ZM310.944 685.078C305.501 685.078 301.1 680.682 301.1 675.22C301.1 669.759 305.501 665.363 310.944 665.363C316.388 665.363 320.788 669.759 320.788 675.22C320.788 680.682 316.388 685.078 310.944 685.078Z" fill="url(#paint1_linear_12_1)" stroke="white" stroke-width="13"/>
</g>
</g>
<defs>
<filter id="filter0_d_12_1" x="-119" y="142" width="938" height="1262" filterUnits="userSpaceOnUse" color-interpolation-filters="sRGB">
<feFlood flood-opacity="0" result="BackgroundImageFix"/>
<feColorMatrix in="SourceAlpha" type="matrix" values="0 0 0 0 0 0 0 0 0 0 0 0 0 0 0 0 0 0 127 0" result="hardAlpha"/>
<feOffset dy="4"/>
<feGaussianBlur stdDeviation="60"/>
<feColorMatrix type="matrix" values="0 0 0 0 0 0 0 0 0 0 0 0 0 0 0 0 0 0 0.25 0"/>
<feBlend mode="normal" in2="BackgroundImageFix" result="effect1_dropShadow_12_1"/>
<feBlend mode="normal" in="SourceGraphic" in2="effect1_dropShadow_12_1" result="shape"/>
</filter>
<filter id="filter1_d_12_1" x="-60" y="232" width="786" height="1112" filterUnits="userSpaceOnUse" color-interpolation-filters="sRGB">
<feFlood flood-opacity="0" result="BackgroundImageFix"/>
<feColorMatrix in="SourceAlpha" type="matrix" values="0 0 0 0 0 0 0 0 0 0 0 0 0 0 0 0 0 0 127 0" result="hardAlpha"/>
<feOffset dy="4"/>
<feGaussianBlur stdDeviation="30"/>
<feColorMatrix type="matrix" values="0 0 0 0 0 0 0 0 0 0 0 0 0 0 0 0 0 0 0.25 0"/>
<feBlend mode="normal" in2="BackgroundImageFix" result="effect1_dropShadow_12_1"/>
<feBlend mode="normal" in="SourceGraphic" in2="effect1_dropShadow_12_1" result="shape"/>
</filter>
<filter id="filter2_d_12_1" x="173.109" y="75.0625" width="1162.06" height="236.984" filterUnits="userSpaceOnUse" color-interpolation-filters="sRGB">
<feFlood flood-opacity="0" result="BackgroundImageFix"/>
<feColorMatrix in="SourceAlpha" type="matrix" values="0 0 0 0 0 0 0 0 0 0 0 0 0 0 0 0 0 0 127 0" result="hardAlpha"/>
<feOffset dy="4"/>
<feGaussianBlur stdDeviation="2"/>
<feColorMatrix type="matrix" values="0 0 0 0 0 0 0 0 0 0 0 0 0 0 0 0 0 0 0.25 0"/>
<feBlend mode="normal" in2="BackgroundImageFix" result="effect1_dropShadow_12_1"/>
<feBlend mode="normal" in="SourceGraphic" in2="effect1_dropShadow_12_1" result="shape"/>
</filter>
<filter id="filter3_d_12_1" x="614.7" y="275.784" width="1302.05" height="584.02" filterUnits="userSpaceOnUse" color-interpolation-filters="sRGB">
<feFlood flood-opacity="0" result="BackgroundImageFix"/>
<feColorMatrix in="SourceAlpha" type="matrix" values="0 0 0 0 0 0 0 0 0 0 0 0 0 0 0 0 0 0 127 0" result="hardAlpha"/>
<feOffset dy="4"/>
<feGaussianBlur stdDeviation="50"/>
<feColorMatrix type="matrix" values="0 0 0 0 0 0 0 0 0 0 0 0 0 0 0 0 0 0 0.25 0"/>
<feBlend mode="normal" in2="BackgroundImageFix" result="effect1_dropShadow_12_1"/>
<feBlend mode="normal" in="SourceGraphic" in2="effect1_dropShadow_12_1" result="shape"/>
</filter>
<filter id="filter4_d_12_1" x="992.071" y="951.822" width="584.047" height="211.102" filterUnits="userSpaceOnUse" color-interpolation-filters="sRGB">
<feFlood flood-opacity="0" result="BackgroundImageFix"/>
<feColorMatrix in="SourceAlpha" type="matrix" values="0 0 0 0 0 0 0 0 0 0 0 0 0 0 0 0 0 0 127 0" result="hardAlpha"/>
<feOffset dy="4"/>
<feGaussianBlur stdDeviation="12.5"/>
<feColorMatrix type="matrix" values="0 0 0 0 0 0 0 0 0 0 0 0 0 0 0 0 0 0 0.25 0"/>
<feBlend mode="normal" in2="BackgroundImageFix" result="effect1_dropShadow_12_1"/>
<feBlend mode="normal" in="SourceGraphic" in2="effect1_dropShadow_12_1" result="shape"/>
</filter>
<filter id="filter5_d_12_1" x="24.4906" y="749.645" width="514.074" height="411.505" filterUnits="userSpaceOnUse" color-interpolation-filters="sRGB">
<feFlood flood-opacity="0" result="BackgroundImageFix"/>
<feColorMatrix in="SourceAlpha" type="matrix" values="0 0 0 0 0 0 0 0 0 0 0 0 0 0 0 0 0 0 127 0" result="hardAlpha"/>
<feOffset dy="4"/>
<feGaussianBlur stdDeviation="17"/>
<feComposite in2="hardAlpha" operator="out"/>
<feColorMatrix type="matrix" values="0 0 0 0 0 0 0 0 0 0 0 0 0 0 0 0 0 0 0.53 0"/>
<feBlend mode="normal" in2="BackgroundImageFix" result="effect1_dropShadow_12_1"/>
<feBlend mode="normal" in="SourceGraphic" in2="effect1_dropShadow_12_1" result="shape"/>
</filter>
<filter id="filter6_d_12_1" x="-110" y="169" width="739" height="737.363" filterUnits="userSpaceOnUse" color-interpolation-filters="sRGB">
<feFlood flood-opacity="0" result="BackgroundImageFix"/>
<feColorMatrix in="SourceAlpha" type="matrix" values="0 0 0 0 0 0 0 0 0 0 0 0 0 0 0 0 0 0 127 0" result="hardAlpha"/>
<feOffset dy="4"/>
<feGaussianBlur stdDeviation="84.5"/>
<feColorMatrix type="matrix" values="0 0 0 0 0 0 0 0 0 0 0 0 0 0 0 0 0 0 0.25 0"/>
<feBlend mode="normal" in2="BackgroundImageFix" result="effect1_dropShadow_12_1"/>
<feBlend mode="normal" in="SourceGraphic" in2="effect1_dropShadow_12_1" result="shape"/>
</filter>
<linearGradient id="paint0_linear_12_1" x1="108.038" y1="379.635" x2="293.622" y2="565.682" gradientUnits="userSpaceOnUse">
<stop stop-color="#387EB8"/>
<stop offset="1" stop-color="#366994"/>
</linearGradient>
<linearGradient id="paint1_linear_12_1" x1="222.105" y1="498.09" x2="421.414" y2="688.878" gradientUnits="userSpaceOnUse">
<stop stop-color="#FFE052"/>
<stop offset="1" stop-color="#FFC331"/>
</linearGradient>
<clipPath id="clip0_12_1">
<rect width="1920" height="1280" fill="white"/>
</clipPath>
</defs>
</svg>
