<svg width="354" height="101" viewBox="0 0 354 101" fill="none" xmlns="http://www.w3.org/2000/svg">
<path d="M237 50.0006C237 77.6135 214.614 100 187 100C159.385 100 137 77.6135 137 50.0006C137 22.3859 159.386 0 187 0C214.615 0 237 22.3859 237 50.0006Z" fill="#DD4814"/>
<path d="M153.002 43.3236C149.313 43.3236 146.325 46.3122 146.325 50.0006C146.325 53.6872 149.313 56.6755 153.002 56.6755C156.688 56.6755 159.677 53.6872 159.677 50.0006C159.677 46.3122 156.688 43.3236 153.002 43.3236ZM200.664 73.6641C197.471 75.5083 196.377 79.5888 198.221 82.7801C200.063 85.973 204.144 87.0675 207.337 85.2234C210.529 83.3813 211.624 79.3007 209.78 76.1074C207.938 72.9165 203.855 71.822 200.664 73.6641ZM167.502 50.0006C167.502 43.4035 170.779 37.5753 175.792 34.046L170.912 25.8717C165.071 29.7758 160.726 35.7417 158.92 42.7288C161.027 44.4484 162.376 47.066 162.376 50.0003C162.376 52.9328 161.027 55.5505 158.92 57.27C160.723 64.2592 165.069 70.2254 170.912 74.1295L175.792 65.9532C170.779 62.4259 167.502 56.5979 167.502 50.0006ZM187 30.4999C197.187 30.4999 205.544 38.3102 206.421 48.2708L215.933 48.1305C215.465 40.7771 212.253 34.1756 207.317 29.3213C204.779 30.2803 201.847 30.1336 199.313 28.6728C196.774 27.2078 195.183 24.7366 194.747 22.054C192.28 21.3731 189.684 21.0003 187 21.0003C182.385 21.0003 178.022 22.0842 174.148 24.0016L178.787 32.3138C181.282 31.1525 184.066 30.4999 187 30.4999ZM187 69.4992C184.066 69.4992 181.282 68.8463 178.787 67.6853L174.148 75.9972C178.022 77.9169 182.385 79.0012 187 79.0012C189.684 79.0012 192.281 78.6281 194.748 77.9452C195.183 75.2625 196.775 72.7936 199.313 71.3261C201.849 69.8629 204.779 69.7188 207.317 70.6778C212.253 65.8235 215.466 59.2221 215.934 51.8686L206.419 51.7283C205.544 61.6915 197.187 69.4992 187 69.4992ZM200.662 26.3329C203.855 28.1768 207.936 27.0847 209.778 23.8917C211.622 20.6987 210.53 16.6179 207.337 14.7734C204.144 12.9313 200.063 14.0258 198.218 17.2188C196.377 20.41 197.471 24.4908 200.662 26.3329Z" fill="white"/>
<g clip-path="url(#clip0)">
<path d="M0 15.0932L40.5534 9.57025L40.5711 48.6873L0.0370455 48.9181L0 15.0932Z" fill="#F8682C"/>
<path d="M45.45 8.84761L99.2205 0.999878V48.1897L45.45 48.6165V8.84761Z" fill="#91C300"/>
<path d="M40.5341 53.1943L40.5656 92.3455L0.031478 86.7726L0.0292053 52.9317L40.5341 53.1943Z" fill="#00B4F1"/>
<path d="M99.2341 53.5625L99.2215 100.54L45.451 92.9507L45.3757 53.4745L99.2341 53.5625Z" fill="#FFC300"/>
</g>
<g clip-path="url(#clip1)">
<path d="M290.057 65.087L275 49.996L323.89 1H354L290.057 65.087ZM354 46.2134H323.89L312.611 57.5177L327.668 72.6087" fill="#42A5F5" fill-opacity="0.8"/>
<path d="M312.611 87.6957L323.89 99H354L327.668 72.6087" fill="#0D47A1"/>
<path d="M297.589 72.6166L312.623 57.5455L327.656 72.6126L312.623 87.6838L297.589 72.6166Z" fill="#42A5F5"/>
<path d="M312.623 87.6838L327.656 72.6166L329.755 74.7198L314.721 89.787L312.623 87.6838Z" fill="url(#paint0_linear)"/>
<path d="M312.611 87.6957L334.951 79.9601L327.668 72.6047" fill="url(#paint1_linear)"/>
</g>
<defs>
<linearGradient id="paint0_linear" x1="320.142" y1="80.1474" x2="322.246" y2="82.246" gradientUnits="userSpaceOnUse">
<stop offset="0.2" stop-opacity="0.15"/>
<stop offset="0.85" stop-color="#616161" stop-opacity="0.01"/>
</linearGradient>
<linearGradient id="paint1_linear" x1="312.616" y1="80.1506" x2="334.956" y2="80.1506" gradientUnits="userSpaceOnUse">
<stop offset="0.2" stop-opacity="0.55"/>
<stop offset="0.85" stop-color="#616161" stop-opacity="0.01"/>
</linearGradient>
<clipPath id="clip0">
<rect y="1" width="100" height="100" fill="white"/>
</clipPath>
<clipPath id="clip1">
<rect x="275" y="1" width="79" height="98" fill="white"/>
</clipPath>
</defs>
</svg>
